# xmcd
#
# Track frame offsets:
#	150
#	96594
#	129039
#	153158
#
# Disc length: 3200 seconds
# Revision: 0
# Processed by: cddbd v1.5.2PL0 Copyright (c) Steve Scherf et al.
# Submitted via: dBpowerAMP V12.0
#
DISCID=260c7e04
DTITLE=Hale Dwoskin - The Inner Circle Retreat 02 CD 01
DYEAR=2007
DGENRE=Speech
TTITLE0=Introduction
TTITLE1=The I Am Called Process
TTITLE2=Sharing - Where Participants Are from
TTITLE3=Group Release
EXTD=
EXTT0=
EXTT1=
EXTT2=
EXTT3=
PLAYORDER=
